<svg width="595" height="588" viewBox="0 0 595 588" fill="none" xmlns="http://www.w3.org/2000/svg">
<g filter="url(#filter0_d_83_402)">
<path d="M533.767 394.956C490.597 486.521 396.556 550 287.478 550C287.052 550 286.646 550 286.22 550C330.926 506.986 368.423 456.687 396.769 401.083C413.086 402.999 429.702 403.989 446.552 403.989C476.455 403.989 505.634 400.873 533.746 394.956H533.767Z" fill="#6CE975"/>
<path d="M446.552 404.489C476.149 404.489 505.038 401.44 532.887 395.647C489.605 486.555 395.999 549.5 287.478 549.5H287.476H287.473H287.471H287.468H287.466H287.463H287.461H287.459C331.728 506.718 368.892 456.782 397.057 401.62C413.282 403.512 429.801 404.489 446.552 404.489Z" stroke="#335043" stroke-opacity="0.21"/>
<path d="M545.051 367.017C554.094 340.299 559 311.707 559 282C559 194.309 516.32 116.429 450.349 67.5409C454.508 94.8062 456.662 122.703 456.662 151.105C456.662 232.838 438.831 310.465 406.795 380.387C419.827 382.05 433.094 382.892 446.574 382.892C481.02 382.892 514.123 377.313 545.051 366.996V367.017Z" fill="#6CE975"/>
<path d="M451.025 68.6678C516.322 117.509 558.5 194.908 558.5 282C558.5 311.556 553.635 340.005 544.665 366.598C513.853 376.849 480.881 382.392 446.574 382.392C433.347 382.392 420.326 381.58 407.532 379.976C439.42 310.152 457.162 232.67 457.162 151.105C457.162 123.095 455.069 95.5756 451.025 68.6678Z" stroke="#335043" stroke-opacity="0.21"/>
<path d="M16 282C16 302.696 18.3889 322.845 22.868 342.194C42.1923 297.391 67.7447 255.808 98.4375 218.563C82.0353 193.951 68.2566 167.507 57.464 139.61C31.2078 180.855 16 229.68 16 282Z" fill="#6CE975"/>
<path d="M97.8158 218.532C67.5183 255.351 42.2358 296.396 23.0156 340.595C18.7638 321.738 16.5 302.128 16.5 282C16.5 230.131 31.4745 181.705 57.3563 140.714C68.0628 168.189 81.6649 194.249 97.8158 218.532Z" stroke="#335043" stroke-opacity="0.21"/>
<path d="M287.5 14C232.983 14 182.219 29.8749 139.667 57.1823C139.134 64.4461 138.878 71.7729 138.878 79.1841C138.878 108.471 143.08 136.789 150.908 163.591C219.609 101.375 305.182 57.056 400.097 38.065C365.8 22.6112 327.663 14 287.5 14Z" fill="#6CE975"/>
<path d="M139.378 79.1841C139.378 71.8693 139.628 64.6375 140.148 57.4682C182.578 30.2937 233.171 14.5 287.5 14.5C327.036 14.5 364.603 22.8591 398.467 37.8837C304.345 57.0062 219.461 101.025 151.165 162.684C143.493 136.154 139.378 108.143 139.378 79.1841Z" stroke="#335043" stroke-opacity="0.21"/>
<path d="M146.386 277.811C124.481 326.088 112.302 379.608 112.302 435.928C112.302 454.203 113.582 472.184 116.056 489.785C194.59 475.321 264.87 437.739 319.366 384.472C252.862 363.438 193.652 326.341 146.386 277.832V277.811Z" fill="#6CE975"/>
<path d="M318.42 384.696C264.196 437.471 194.42 474.737 116.479 489.198C114.055 471.785 112.802 454.001 112.802 435.928C112.802 379.945 124.851 326.734 146.533 278.698C193.583 326.818 252.395 363.669 318.42 384.696Z" stroke="#335043" stroke-opacity="0.21"/>
<path d="M338.989 363.838C269.157 338.11 211.355 288.085 176.119 224.164C233.473 137.694 324.912 75.2468 431.6 55.4347C434.139 73.1835 435.44 91.3323 435.44 109.755C435.44 207.005 399.052 295.875 338.989 363.817V363.838Z" fill="#6CE975"/>
<path d="M176.703 224.188C233.902 138.098 324.949 75.894 431.179 56.0219C433.665 73.5827 434.94 91.5345 434.94 109.755C434.94 206.762 398.686 295.421 338.827 363.245C269.354 337.558 211.838 287.774 176.703 224.188Z" stroke="#335043" stroke-opacity="0.21"/>
</g>
<defs>
<filter id="filter0_d_83_402" x="0" y="0" width="595" height="588" filterUnits="userSpaceOnUse" color-interpolation-filters="sRGB">
<feFlood flood-opacity="0" result="BackgroundImageFix"/>
<feColorMatrix in="SourceAlpha" type="matrix" values="0 0 0 0 0 0 0 0 0 0 0 0 0 0 0 0 0 0 127 0" result="hardAlpha"/>
<feOffset dx="10" dy="12"/>
<feGaussianBlur stdDeviation="13"/>
<feComposite in2="hardAlpha" operator="out"/>
<feColorMatrix type="matrix" values="0 0 0 0 0.2 0 0 0 0 0.313726 0 0 0 0 0.262745 0 0 0 1 0"/>
<feBlend mode="normal" in2="BackgroundImageFix" result="effect1_dropShadow_83_402"/>
<feBlend mode="normal" in="SourceGraphic" in2="effect1_dropShadow_83_402" result="shape"/>
</filter>
</defs>
</svg>
